<mxfile host="app.diagrams.net" agent="Mozilla/5.0 (Windows NT 10.0; Win64; x64) AppleWebKit/537.36 (KHTML, like Gecko) Chrome/129.0.0.0 Safari/537.36" version="24.7.17">
  <diagram name="Page-1" id="QkX7RiqChygj4JfRRcki">
    <mxGraphModel dx="1430" dy="818" grid="1" gridSize="10" guides="1" tooltips="1" connect="1" arrows="1" fold="1" page="1" pageScale="1" pageWidth="1100" pageHeight="850" math="0" shadow="0">
      <root>
        <mxCell id="0" />
        <mxCell id="1" parent="0" />
        <mxCell id="uVoolJuP0zKPl50KD_US-58" style="edgeStyle=orthogonalEdgeStyle;rounded=0;orthogonalLoop=1;jettySize=auto;html=1;" edge="1" parent="1" source="uVoolJuP0zKPl50KD_US-6" target="uVoolJuP0zKPl50KD_US-57">
          <mxGeometry relative="1" as="geometry" />
        </mxCell>
        <mxCell id="uVoolJuP0zKPl50KD_US-6" value="Program B&lt;div&gt;&lt;b&gt;&lt;i&gt;&lt;span style=&quot;line-height: 13.8px; font-family: Arial, sans-serif;&quot; lang=&quot;EN&quot;&gt;Look for file&lt;/span&gt;&lt;/i&gt;&lt;/b&gt;&lt;/div&gt;" style="ellipse;whiteSpace=wrap;html=1;aspect=fixed;" vertex="1" parent="1">
          <mxGeometry x="150" y="340" width="120" height="60" as="geometry" />
        </mxCell>
        <mxCell id="uVoolJuP0zKPl50KD_US-7" value="Program B&lt;div&gt;&lt;font face=&quot;Arial, sans-serif&quot;&gt;&lt;b&gt;&lt;i&gt;Check if file is valid&lt;/i&gt;&lt;/b&gt;&lt;/font&gt;&lt;/div&gt;" style="ellipse;whiteSpace=wrap;html=1;aspect=fixed;" vertex="1" parent="1">
          <mxGeometry x="460" y="585" width="120" height="60" as="geometry" />
        </mxCell>
        <mxCell id="uVoolJuP0zKPl50KD_US-53" style="edgeStyle=orthogonalEdgeStyle;rounded=0;orthogonalLoop=1;jettySize=auto;html=1;entryX=1;entryY=0.5;entryDx=0;entryDy=0;" edge="1" parent="1" source="uVoolJuP0zKPl50KD_US-15" target="uVoolJuP0zKPl50KD_US-34">
          <mxGeometry relative="1" as="geometry">
            <Array as="points">
              <mxPoint x="1030" y="700" />
              <mxPoint x="1030" y="340" />
            </Array>
          </mxGeometry>
        </mxCell>
        <mxCell id="uVoolJuP0zKPl50KD_US-15" value="Program B&lt;div&gt;&lt;font face=&quot;Arial, sans-serif&quot;&gt;&lt;b&gt;&lt;i&gt;Write to result file&lt;/i&gt;&lt;/b&gt;&lt;/font&gt;&lt;/div&gt;" style="ellipse;whiteSpace=wrap;html=1;aspect=fixed;" vertex="1" parent="1">
          <mxGeometry x="860" y="670" width="120" height="60" as="geometry" />
        </mxCell>
        <mxCell id="uVoolJuP0zKPl50KD_US-19" style="edgeStyle=orthogonalEdgeStyle;rounded=0;orthogonalLoop=1;jettySize=auto;html=1;entryX=0;entryY=0.5;entryDx=0;entryDy=0;" edge="1" parent="1" source="uVoolJuP0zKPl50KD_US-16" target="uVoolJuP0zKPl50KD_US-6">
          <mxGeometry relative="1" as="geometry" />
        </mxCell>
        <mxCell id="uVoolJuP0zKPl50KD_US-16" value="User Input&lt;div&gt;first name&lt;/div&gt;&lt;div&gt;last name&lt;/div&gt;" style="shape=partialRectangle;whiteSpace=wrap;html=1;top=0;bottom=0;fillColor=none;direction=south;" vertex="1" parent="1">
          <mxGeometry x="10" y="240" width="160" height="60" as="geometry" />
        </mxCell>
        <mxCell id="uVoolJuP0zKPl50KD_US-18" style="edgeStyle=orthogonalEdgeStyle;rounded=0;orthogonalLoop=1;jettySize=auto;html=1;" edge="1" parent="1" source="uVoolJuP0zKPl50KD_US-17" target="uVoolJuP0zKPl50KD_US-16">
          <mxGeometry relative="1" as="geometry" />
        </mxCell>
        <mxCell id="uVoolJuP0zKPl50KD_US-17" value="Program B&lt;div&gt;&lt;font face=&quot;Arial, sans-serif&quot;&gt;&lt;b&gt;&lt;i&gt;Parse user input&lt;/i&gt;&lt;/b&gt;&lt;/font&gt;&lt;/div&gt;" style="ellipse;whiteSpace=wrap;html=1;aspect=fixed;" vertex="1" parent="1">
          <mxGeometry x="30" y="130" width="120" height="60" as="geometry" />
        </mxCell>
        <mxCell id="uVoolJuP0zKPl50KD_US-41" style="edgeStyle=orthogonalEdgeStyle;rounded=0;orthogonalLoop=1;jettySize=auto;html=1;entryX=1;entryY=0.5;entryDx=0;entryDy=0;" edge="1" parent="1" source="uVoolJuP0zKPl50KD_US-20" target="uVoolJuP0zKPl50KD_US-17">
          <mxGeometry relative="1" as="geometry" />
        </mxCell>
        <mxCell id="uVoolJuP0zKPl50KD_US-20" value="User" style="rounded=0;whiteSpace=wrap;html=1;" vertex="1" parent="1">
          <mxGeometry x="240" y="130" width="120" height="60" as="geometry" />
        </mxCell>
        <mxCell id="uVoolJuP0zKPl50KD_US-50" style="edgeStyle=elbowEdgeStyle;rounded=0;orthogonalLoop=1;jettySize=auto;html=1;startArrow=none;endArrow=classic;segment=10;sourcePerimeterSpacing=0;targetPerimeterSpacing=0;entryX=0.5;entryY=1;entryDx=0;entryDy=0;endFill=1;" edge="1" parent="1" source="uVoolJuP0zKPl50KD_US-22" target="uVoolJuP0zKPl50KD_US-34">
          <mxGeometry relative="1" as="geometry">
            <Array as="points">
              <mxPoint x="900" y="470" />
            </Array>
          </mxGeometry>
        </mxCell>
        <mxCell id="uVoolJuP0zKPl50KD_US-22" value="file is not valid" style="whiteSpace=wrap;html=1;shape=partialRectangle;top=0;left=0;bottom=1;right=0;points=[[0,1],[1,1]];fillColor=none;align=center;verticalAlign=bottom;routingCenterY=0.5;snapToPoint=1;recursiveResize=0;autosize=1;treeFolding=1;treeMoving=1;newEdgeStyle={&quot;edgeStyle&quot;:&quot;entityRelationEdgeStyle&quot;,&quot;startArrow&quot;:&quot;none&quot;,&quot;endArrow&quot;:&quot;none&quot;,&quot;segment&quot;:10,&quot;curved&quot;:1,&quot;sourcePerimeterSpacing&quot;:0,&quot;targetPerimeterSpacing&quot;:0};" vertex="1" parent="1">
          <mxGeometry x="630" y="530" width="120" height="30" as="geometry" />
        </mxCell>
        <mxCell id="uVoolJuP0zKPl50KD_US-23" value="" style="edgeStyle=entityRelationEdgeStyle;startArrow=none;endArrow=none;segment=10;curved=1;sourcePerimeterSpacing=0;targetPerimeterSpacing=0;rounded=0;exitX=1;exitY=0.5;exitDx=0;exitDy=0;" edge="1" target="uVoolJuP0zKPl50KD_US-22" parent="1" source="uVoolJuP0zKPl50KD_US-7">
          <mxGeometry relative="1" as="geometry">
            <mxPoint x="750" y="540" as="sourcePoint" />
            <Array as="points">
              <mxPoint x="870" y="550" />
            </Array>
          </mxGeometry>
        </mxCell>
        <mxCell id="uVoolJuP0zKPl50KD_US-47" style="edgeStyle=entityRelationEdgeStyle;rounded=0;orthogonalLoop=1;jettySize=auto;html=1;startArrow=none;endArrow=classic;segment=10;curved=1;sourcePerimeterSpacing=0;targetPerimeterSpacing=0;exitX=1;exitY=1;exitDx=0;exitDy=0;entryX=0;entryY=0.5;entryDx=0;entryDy=0;endFill=1;" edge="1" parent="1" source="uVoolJuP0zKPl50KD_US-24" target="uVoolJuP0zKPl50KD_US-15">
          <mxGeometry relative="1" as="geometry" />
        </mxCell>
        <mxCell id="uVoolJuP0zKPl50KD_US-24" value="file is valid" style="whiteSpace=wrap;html=1;shape=partialRectangle;top=0;left=0;bottom=1;right=0;points=[[0,1],[1,1]];fillColor=none;align=center;verticalAlign=bottom;routingCenterY=0.5;snapToPoint=1;recursiveResize=0;autosize=1;treeFolding=1;treeMoving=1;newEdgeStyle={&quot;edgeStyle&quot;:&quot;entityRelationEdgeStyle&quot;,&quot;startArrow&quot;:&quot;none&quot;,&quot;endArrow&quot;:&quot;none&quot;,&quot;segment&quot;:10,&quot;curved&quot;:1,&quot;sourcePerimeterSpacing&quot;:0,&quot;targetPerimeterSpacing&quot;:0};" vertex="1" parent="1">
          <mxGeometry x="610" y="670" width="100" height="30" as="geometry" />
        </mxCell>
        <mxCell id="uVoolJuP0zKPl50KD_US-25" value="" style="edgeStyle=entityRelationEdgeStyle;startArrow=none;endArrow=none;segment=10;curved=1;sourcePerimeterSpacing=0;targetPerimeterSpacing=0;rounded=0;exitX=1;exitY=0.5;exitDx=0;exitDy=0;" edge="1" parent="1" target="uVoolJuP0zKPl50KD_US-24" source="uVoolJuP0zKPl50KD_US-7">
          <mxGeometry relative="1" as="geometry">
            <mxPoint x="750" y="540" as="sourcePoint" />
            <Array as="points">
              <mxPoint x="760" y="470" />
              <mxPoint x="870" y="550" />
            </Array>
          </mxGeometry>
        </mxCell>
        <mxCell id="uVoolJuP0zKPl50KD_US-30" value="" style="edgeStyle=entityRelationEdgeStyle;startArrow=none;endArrow=none;segment=10;curved=1;sourcePerimeterSpacing=0;targetPerimeterSpacing=0;rounded=0;entryX=0;entryY=1;entryDx=0;entryDy=0;exitX=1;exitY=0.5;exitDx=0;exitDy=0;" edge="1" parent="1" source="uVoolJuP0zKPl50KD_US-57" target="uVoolJuP0zKPl50KD_US-32">
          <mxGeometry relative="1" as="geometry">
            <mxPoint x="290" y="570" as="sourcePoint" />
            <mxPoint x="330" y="490" as="targetPoint" />
            <Array as="points">
              <mxPoint x="410" y="580" />
            </Array>
          </mxGeometry>
        </mxCell>
        <mxCell id="uVoolJuP0zKPl50KD_US-31" value="" style="edgeStyle=entityRelationEdgeStyle;startArrow=none;endArrow=none;segment=10;curved=1;sourcePerimeterSpacing=0;targetPerimeterSpacing=0;rounded=0;entryX=0;entryY=0.986;entryDx=0;entryDy=0;entryPerimeter=0;exitX=1;exitY=0.5;exitDx=0;exitDy=0;" edge="1" parent="1" source="uVoolJuP0zKPl50KD_US-57" target="uVoolJuP0zKPl50KD_US-33">
          <mxGeometry relative="1" as="geometry">
            <mxPoint x="290" y="570" as="sourcePoint" />
            <Array as="points">
              <mxPoint x="300" y="500" />
              <mxPoint x="410" y="580" />
            </Array>
            <mxPoint x="320" y="630" as="targetPoint" />
          </mxGeometry>
        </mxCell>
        <mxCell id="uVoolJuP0zKPl50KD_US-51" style="edgeStyle=elbowEdgeStyle;rounded=0;orthogonalLoop=1;jettySize=auto;html=1;startArrow=none;endArrow=classic;segment=10;sourcePerimeterSpacing=0;targetPerimeterSpacing=0;entryX=0;entryY=0.5;entryDx=0;entryDy=0;endFill=1;" edge="1" parent="1" source="uVoolJuP0zKPl50KD_US-32" target="uVoolJuP0zKPl50KD_US-34">
          <mxGeometry relative="1" as="geometry">
            <Array as="points">
              <mxPoint x="500" y="400" />
            </Array>
          </mxGeometry>
        </mxCell>
        <mxCell id="uVoolJuP0zKPl50KD_US-32" value="file does not exist" style="whiteSpace=wrap;html=1;shape=partialRectangle;top=0;left=0;bottom=1;right=0;points=[[0,1],[1,1]];fillColor=none;align=center;verticalAlign=bottom;routingCenterY=0.5;snapToPoint=1;recursiveResize=0;autosize=1;treeFolding=1;treeMoving=1;newEdgeStyle={&quot;edgeStyle&quot;:&quot;entityRelationEdgeStyle&quot;,&quot;startArrow&quot;:&quot;none&quot;,&quot;endArrow&quot;:&quot;none&quot;,&quot;segment&quot;:10,&quot;curved&quot;:1,&quot;sourcePerimeterSpacing&quot;:0,&quot;targetPerimeterSpacing&quot;:0};" vertex="1" parent="1">
          <mxGeometry x="305" y="430" width="130" height="30" as="geometry" />
        </mxCell>
        <mxCell id="uVoolJuP0zKPl50KD_US-45" style="edgeStyle=entityRelationEdgeStyle;rounded=0;orthogonalLoop=1;jettySize=auto;html=1;startArrow=none;endArrow=classic;segment=10;curved=1;sourcePerimeterSpacing=0;targetPerimeterSpacing=0;entryX=0;entryY=0.5;entryDx=0;entryDy=0;flowAnimation=0;endFill=1;" edge="1" parent="1" source="uVoolJuP0zKPl50KD_US-33" target="uVoolJuP0zKPl50KD_US-7">
          <mxGeometry relative="1" as="geometry" />
        </mxCell>
        <mxCell id="uVoolJuP0zKPl50KD_US-33" value="file exists" style="whiteSpace=wrap;html=1;shape=partialRectangle;top=0;left=0;bottom=1;right=0;points=[[0,1],[1,1]];fillColor=none;align=center;verticalAlign=bottom;routingCenterY=0.5;snapToPoint=1;recursiveResize=0;autosize=1;treeFolding=1;treeMoving=1;newEdgeStyle={&quot;edgeStyle&quot;:&quot;entityRelationEdgeStyle&quot;,&quot;startArrow&quot;:&quot;none&quot;,&quot;endArrow&quot;:&quot;none&quot;,&quot;segment&quot;:10,&quot;curved&quot;:1,&quot;sourcePerimeterSpacing&quot;:0,&quot;targetPerimeterSpacing&quot;:0};" vertex="1" parent="1">
          <mxGeometry x="315" y="585" width="90" height="30" as="geometry" />
        </mxCell>
        <mxCell id="uVoolJuP0zKPl50KD_US-55" style="edgeStyle=orthogonalEdgeStyle;rounded=0;orthogonalLoop=1;jettySize=auto;html=1;entryX=1;entryY=0.5;entryDx=0;entryDy=0;" edge="1" parent="1" source="uVoolJuP0zKPl50KD_US-34" target="uVoolJuP0zKPl50KD_US-54">
          <mxGeometry relative="1" as="geometry">
            <Array as="points">
              <mxPoint x="900" y="160" />
            </Array>
          </mxGeometry>
        </mxCell>
        <mxCell id="uVoolJuP0zKPl50KD_US-34" value="Program B&lt;div&gt;&lt;font face=&quot;Arial, sans-serif&quot;&gt;&lt;b&gt;&lt;i&gt;Generate Report&lt;/i&gt;&lt;/b&gt;&lt;/font&gt;&lt;/div&gt;" style="ellipse;whiteSpace=wrap;html=1;aspect=fixed;" vertex="1" parent="1">
          <mxGeometry x="840" y="310" width="120" height="60" as="geometry" />
        </mxCell>
        <mxCell id="uVoolJuP0zKPl50KD_US-40" style="edgeStyle=orthogonalEdgeStyle;rounded=0;orthogonalLoop=1;jettySize=auto;html=1;entryX=0.5;entryY=0;entryDx=0;entryDy=0;" edge="1" parent="1" source="uVoolJuP0zKPl50KD_US-39" target="uVoolJuP0zKPl50KD_US-17">
          <mxGeometry relative="1" as="geometry" />
        </mxCell>
        <mxCell id="uVoolJuP0zKPl50KD_US-39" value="Program B&lt;div&gt;&lt;font face=&quot;Arial, sans-serif&quot;&gt;&lt;b&gt;&lt;i&gt;Describe Program B&lt;/i&gt;&lt;/b&gt;&lt;/font&gt;&lt;/div&gt;" style="ellipse;whiteSpace=wrap;html=1;aspect=fixed;" vertex="1" parent="1">
          <mxGeometry x="30" y="20" width="120" height="80" as="geometry" />
        </mxCell>
        <mxCell id="uVoolJuP0zKPl50KD_US-56" style="edgeStyle=orthogonalEdgeStyle;rounded=0;orthogonalLoop=1;jettySize=auto;html=1;entryX=1;entryY=0.5;entryDx=0;entryDy=0;" edge="1" parent="1" source="uVoolJuP0zKPl50KD_US-54" target="uVoolJuP0zKPl50KD_US-20">
          <mxGeometry relative="1" as="geometry" />
        </mxCell>
        <mxCell id="uVoolJuP0zKPl50KD_US-54" value="Program B&lt;div&gt;&lt;font face=&quot;Arial, sans-serif&quot;&gt;&lt;b&gt;&lt;i&gt;Display Report and Exit&lt;/i&gt;&lt;/b&gt;&lt;/font&gt;&lt;/div&gt;" style="ellipse;whiteSpace=wrap;html=1;aspect=fixed;" vertex="1" parent="1">
          <mxGeometry x="510" y="130" width="120" height="60" as="geometry" />
        </mxCell>
        <mxCell id="uVoolJuP0zKPl50KD_US-57" value="Local file system" style="rounded=0;whiteSpace=wrap;html=1;" vertex="1" parent="1">
          <mxGeometry x="150" y="525" width="120" height="60" as="geometry" />
        </mxCell>
      </root>
    </mxGraphModel>
  </diagram>
</mxfile>
